<svg xmlns="http://www.w3.org/2000/svg" width="4096" height="512"><defs><radialGradient id="sky"><stop stop-color="#59102d"/><stop offset="1" stop-color="#08020d"/></radialGradient></defs><g transform="translate(0 0)"><rect width="512" height="256" fill="url(#sky)" fill-opacity=".93"/><path d="M-60 160 q70 -25 155 8 t170 -2" stroke="#952548" stroke-width="3" opacity=".16" fill="none"/><path d="M6 160 q70 -25 155 8 t170 -2" stroke="#952548" stroke-width="4" opacity=".16" fill="none"/><path d="M72 160 q70 -25 155 8 t170 -2" stroke="#952548" stroke-width="5" opacity=".16" fill="none"/><path d="M138 160 q70 -25 155 8 t170 -2" stroke="#952548" stroke-width="3" opacity=".16" fill="none"/><path d="M204 160 q70 -25 155 8 t170 -2" stroke="#952548" stroke-width="4" opacity=".16" fill="none"/><path d="M270 160 q70 -25 155 8 t170 -2" stroke="#952548" stroke-width="5" opacity=".16" fill="none"/><path d="M336 160 q70 -25 155 8 t170 -2" stroke="#952548" stroke-width="3" opacity=".16" fill="none"/><path d="M402 160 q70 -25 155 8 t170 -2" stroke="#952548" stroke-width="4" opacity=".16" fill="none"/><path d="M468 160 q70 -25 155 8 t170 -2" stroke="#952548" stroke-width="5" opacity=".16" fill="none"/><path d="M0 228 Q100 213 256 231 T512 225 V256 H0Z" fill="#050109"/></g><g transform="translate(512 0)"><rect width="512" height="256" fill="url(#sky)" fill-opacity=".93"/><path d="M-58 160 q70 -25 155 8 t170 -2" stroke="#952548" stroke-width="3" opacity=".16" fill="none"/><path d="M8 160 q70 -25 155 8 t170 -2" stroke="#952548" stroke-width="4" opacity=".16" fill="none"/><path d="M74 160 q70 -25 155 8 t170 -2" stroke="#952548" stroke-width="5" opacity=".16" fill="none"/><path d="M140 160 q70 -25 155 8 t170 -2" stroke="#952548" stroke-width="3" opacity=".16" fill="none"/><path d="M206 160 q70 -25 155 8 t170 -2" stroke="#952548" stroke-width="4" opacity=".16" fill="none"/><path d="M272 160 q70 -25 155 8 t170 -2" stroke="#952548" stroke-width="5" opacity=".16" fill="none"/><path d="M338 160 q70 -25 155 8 t170 -2" stroke="#952548" stroke-width="3" opacity=".16" fill="none"/><path d="M404 160 q70 -25 155 8 t170 -2" stroke="#952548" stroke-width="4" opacity=".16" fill="none"/><path d="M470 160 q70 -25 155 8 t170 -2" stroke="#952548" stroke-width="5" opacity=".16" fill="none"/><path d="M0 228 Q100 213 256 231 T512 225 V256 H0Z" fill="#050109"/></g><g transform="translate(1024 0)"><rect width="512" height="256" fill="url(#sky)" fill-opacity=".93"/><path d="M-56 160 q70 -25 155 8 t170 -2" stroke="#952548" stroke-width="3" opacity=".16" fill="none"/><path d="M10 160 q70 -25 155 8 t170 -2" stroke="#952548" stroke-width="4" opacity=".16" fill="none"/><path d="M76 160 q70 -25 155 8 t170 -2" stroke="#952548" stroke-width="5" opacity=".16" fill="none"/><path d="M142 160 q70 -25 155 8 t170 -2" stroke="#952548" stroke-width="3" opacity=".16" fill="none"/><path d="M208 160 q70 -25 155 8 t170 -2" stroke="#952548" stroke-width="4" opacity=".16" fill="none"/><path d="M274 160 q70 -25 155 8 t170 -2" stroke="#952548" stroke-width="5" opacity=".16" fill="none"/><path d="M340 160 q70 -25 155 8 t170 -2" stroke="#952548" stroke-width="3" opacity=".16" fill="none"/><path d="M406 160 q70 -25 155 8 t170 -2" stroke="#952548" stroke-width="4" opacity=".16" fill="none"/><path d="M472 160 q70 -25 155 8 t170 -2" stroke="#952548" stroke-width="5" opacity=".16" fill="none"/><path d="M0 228 Q100 213 256 231 T512 225 V256 H0Z" fill="#050109"/></g><g transform="translate(1536 0)"><rect width="512" height="256" fill="url(#sky)" fill-opacity=".93"/><path d="M-54 160 q70 -25 155 8 t170 -2" stroke="#952548" stroke-width="3" opacity=".16" fill="none"/><path d="M12 160 q70 -25 155 8 t170 -2" stroke="#952548" stroke-width="4" opacity=".16" fill="none"/><path d="M78 160 q70 -25 155 8 t170 -2" stroke="#952548" stroke-width="5" opacity=".16" fill="none"/><path d="M144 160 q70 -25 155 8 t170 -2" stroke="#952548" stroke-width="3" opacity=".16" fill="none"/><path d="M210 160 q70 -25 155 8 t170 -2" stroke="#952548" stroke-width="4" opacity=".16" fill="none"/><path d="M276 160 q70 -25 155 8 t170 -2" stroke="#952548" stroke-width="5" opacity=".16" fill="none"/><path d="M342 160 q70 -25 155 8 t170 -2" stroke="#952548" stroke-width="3" opacity=".16" fill="none"/><path d="M408 160 q70 -25 155 8 t170 -2" stroke="#952548" stroke-width="4" opacity=".16" fill="none"/><path d="M474 160 q70 -25 155 8 t170 -2" stroke="#952548" stroke-width="5" opacity=".16" fill="none"/><path d="M0 228 Q100 213 256 231 T512 225 V256 H0Z" fill="#050109"/></g><g transform="translate(2048 0)"><rect width="512" height="256" fill="url(#sky)" fill-opacity=".93"/><path d="M-52 160 q70 -25 155 8 t170 -2" stroke="#952548" stroke-width="3" opacity=".16" fill="none"/><path d="M14 160 q70 -25 155 8 t170 -2" stroke="#952548" stroke-width="4" opacity=".16" fill="none"/><path d="M80 160 q70 -25 155 8 t170 -2" stroke="#952548" stroke-width="5" opacity=".16" fill="none"/><path d="M146 160 q70 -25 155 8 t170 -2" stroke="#952548" stroke-width="3" opacity=".16" fill="none"/><path d="M212 160 q70 -25 155 8 t170 -2" stroke="#952548" stroke-width="4" opacity=".16" fill="none"/><path d="M278 160 q70 -25 155 8 t170 -2" stroke="#952548" stroke-width="5" opacity=".16" fill="none"/><path d="M344 160 q70 -25 155 8 t170 -2" stroke="#952548" stroke-width="3" opacity=".16" fill="none"/><path d="M410 160 q70 -25 155 8 t170 -2" stroke="#952548" stroke-width="4" opacity=".16" fill="none"/><path d="M476 160 q70 -25 155 8 t170 -2" stroke="#952548" stroke-width="5" opacity=".16" fill="none"/><path d="M0 228 Q100 213 256 231 T512 225 V256 H0Z" fill="#050109"/></g><g transform="translate(2560 0)"><rect width="512" height="256" fill="url(#sky)" fill-opacity=".93"/><path d="M-50 160 q70 -25 155 8 t170 -2" stroke="#952548" stroke-width="3" opacity=".16" fill="none"/><path d="M16 160 q70 -25 155 8 t170 -2" stroke="#952548" stroke-width="4" opacity=".16" fill="none"/><path d="M82 160 q70 -25 155 8 t170 -2" stroke="#952548" stroke-width="5" opacity=".16" fill="none"/><path d="M148 160 q70 -25 155 8 t170 -2" stroke="#952548" stroke-width="3" opacity=".16" fill="none"/><path d="M214 160 q70 -25 155 8 t170 -2" stroke="#952548" stroke-width="4" opacity=".16" fill="none"/><path d="M280 160 q70 -25 155 8 t170 -2" stroke="#952548" stroke-width="5" opacity=".16" fill="none"/><path d="M346 160 q70 -25 155 8 t170 -2" stroke="#952548" stroke-width="3" opacity=".16" fill="none"/><path d="M412 160 q70 -25 155 8 t170 -2" stroke="#952548" stroke-width="4" opacity=".16" fill="none"/><path d="M478 160 q70 -25 155 8 t170 -2" stroke="#952548" stroke-width="5" opacity=".16" fill="none"/><path d="M0 228 Q100 213 256 231 T512 225 V256 H0Z" fill="#050109"/></g><g transform="translate(3072 0)"><rect width="512" height="256" fill="url(#sky)" fill-opacity=".93"/><path d="M-48 160 q70 -25 155 8 t170 -2" stroke="#952548" stroke-width="3" opacity=".16" fill="none"/><path d="M18 160 q70 -25 155 8 t170 -2" stroke="#952548" stroke-width="4" opacity=".16" fill="none"/><path d="M84 160 q70 -25 155 8 t170 -2" stroke="#952548" stroke-width="5" opacity=".16" fill="none"/><path d="M150 160 q70 -25 155 8 t170 -2" stroke="#952548" stroke-width="3" opacity=".16" fill="none"/><path d="M216 160 q70 -25 155 8 t170 -2" stroke="#952548" stroke-width="4" opacity=".16" fill="none"/><path d="M282 160 q70 -25 155 8 t170 -2" stroke="#952548" stroke-width="5" opacity=".16" fill="none"/><path d="M348 160 q70 -25 155 8 t170 -2" stroke="#952548" stroke-width="3" opacity=".16" fill="none"/><path d="M414 160 q70 -25 155 8 t170 -2" stroke="#952548" stroke-width="4" opacity=".16" fill="none"/><path d="M480 160 q70 -25 155 8 t170 -2" stroke="#952548" stroke-width="5" opacity=".16" fill="none"/><path d="M0 228 Q100 213 256 231 T512 225 V256 H0Z" fill="#050109"/></g><g transform="translate(3584 0)"><rect width="512" height="256" fill="url(#sky)" fill-opacity=".93"/><path d="M-46 160 q70 -25 155 8 t170 -2" stroke="#952548" stroke-width="3" opacity=".16" fill="none"/><path d="M20 160 q70 -25 155 8 t170 -2" stroke="#952548" stroke-width="4" opacity=".16" fill="none"/><path d="M86 160 q70 -25 155 8 t170 -2" stroke="#952548" stroke-width="5" opacity=".16" fill="none"/><path d="M152 160 q70 -25 155 8 t170 -2" stroke="#952548" stroke-width="3" opacity=".16" fill="none"/><path d="M218 160 q70 -25 155 8 t170 -2" stroke="#952548" stroke-width="4" opacity=".16" fill="none"/><path d="M284 160 q70 -25 155 8 t170 -2" stroke="#952548" stroke-width="5" opacity=".16" fill="none"/><path d="M350 160 q70 -25 155 8 t170 -2" stroke="#952548" stroke-width="3" opacity=".16" fill="none"/><path d="M416 160 q70 -25 155 8 t170 -2" stroke="#952548" stroke-width="4" opacity=".16" fill="none"/><path d="M482 160 q70 -25 155 8 t170 -2" stroke="#952548" stroke-width="5" opacity=".16" fill="none"/><path d="M0 228 Q100 213 256 231 T512 225 V256 H0Z" fill="#050109"/></g><g transform="translate(0 256)"><g transform="rotate(-40 256 128)"><path d="M120 245 Q240 114 395 5 Q278 160 120 245Z" fill="#f83e6c" opacity=".65"/><path d="M134 236 Q251 115 386 12 Q263 146 134 236Z" fill="#fff1eb"/><path d="M125 25 Q230 150 390 235 Q233 161 125 25Z" fill="#ffa5b8"/></g></g><g transform="translate(512 256)"><g transform="rotate(20 256 128)"><path d="M120 245 Q240 114 395 5 Q278 160 120 245Z" fill="#f83e6c" opacity=".65"/><path d="M134 236 Q251 115 386 12 Q263 146 134 236Z" fill="#fff1eb"/><path d="M125 25 Q230 150 390 235 Q233 161 125 25Z" fill="#ffa5b8"/></g></g><g transform="translate(1024 256)"><g transform="rotate(-15 256 128)"><path d="M120 245 Q240 114 395 5 Q278 160 120 245Z" fill="#f83e6c" opacity=".65"/><path d="M134 236 Q251 115 386 12 Q263 146 134 236Z" fill="#fff1eb"/><path d="M125 25 Q230 150 390 235 Q233 161 125 25Z" fill="#ffa5b8"/></g></g><g transform="translate(1536 256)"><g transform="rotate(45 256 128)"><path d="M120 245 Q240 114 395 5 Q278 160 120 245Z" fill="#f83e6c" opacity=".65"/><path d="M134 236 Q251 115 386 12 Q263 146 134 236Z" fill="#fff1eb"/><path d="M125 25 Q230 150 390 235 Q233 161 125 25Z" fill="#ffa5b8"/></g></g><g transform="translate(2048 256)"><g transform="rotate(-30 256 128)"><path d="M120 245 Q240 114 395 5 Q278 160 120 245Z" fill="#f83e6c" opacity=".65"/><path d="M134 236 Q251 115 386 12 Q263 146 134 236Z" fill="#fff1eb"/><path d="M125 25 Q230 150 390 235 Q233 161 125 25Z" fill="#ffa5b8"/></g></g><g transform="translate(2560 256)"><g transform="rotate(10 256 128)"><path d="M120 245 Q240 114 395 5 Q278 160 120 245Z" fill="#f83e6c" opacity=".65"/><path d="M134 236 Q251 115 386 12 Q263 146 134 236Z" fill="#fff1eb"/><path d="M125 25 Q230 150 390 235 Q233 161 125 25Z" fill="#ffa5b8"/></g></g><g transform="translate(3072 256)"><g transform="rotate(35 256 128)"><path d="M120 245 Q240 114 395 5 Q278 160 120 245Z" fill="#f83e6c" opacity=".65"/><path d="M134 236 Q251 115 386 12 Q263 146 134 236Z" fill="#fff1eb"/><path d="M125 25 Q230 150 390 235 Q233 161 125 25Z" fill="#ffa5b8"/></g></g><g transform="translate(3584 256)"><g transform="rotate(-20 256 128)"><path d="M120 245 Q240 114 395 5 Q278 160 120 245Z" fill="#f83e6c" opacity=".65"/><path d="M134 236 Q251 115 386 12 Q263 146 134 236Z" fill="#fff1eb"/><path d="M125 25 Q230 150 390 235 Q233 161 125 25Z" fill="#ffa5b8"/></g></g></svg>